<svg xmlns="http://www.w3.org/2000/svg" fill="none" viewBox="0 0 84 32">
  <path fill="#225E63" d="m57.1 18.17.84.26c-.06.23-.14.43-.27.58-.12.15-.26.28-.44.35-.18.08-.4.12-.69.12-.33 0-.6-.04-.82-.14a1.3 1.3 0 0 1-.54-.51 1.72 1.72 0 0 1-.24-.93c0-.5.14-.9.4-1.18.27-.27.66-.4 1.15-.4.39 0 .68.08.9.24.23.15.4.39.5.72l-.84.18a.49.49 0 0 0-.1-.2.57.57 0 0 0-.2-.17.55.55 0 0 0-.25-.06c-.2 0-.37.08-.49.27-.08.12-.12.33-.12.6 0 .33.05.57.15.7.1.12.25.19.43.19.19 0 .32-.06.4-.16a.95.95 0 0 0 .23-.46Zm1.17-.27c0-.5.14-.9.42-1.18.28-.27.67-.41 1.17-.41.52 0 .9.14 1.19.4.27.28.41.66.41 1.16 0 .36-.05.65-.18.88-.12.22-.3.4-.53.53-.22.12-.51.19-.85.19a2 2 0 0 1-.86-.17c-.22-.1-.4-.28-.56-.53-.15-.25-.2-.51-.2-.87Zm.95 0c0 .3.06.53.17.66.1.14.26.21.47.21a.6.6 0 0 0 .47-.2c.12-.13.17-.37.17-.7 0-.3-.05-.5-.18-.63-.11-.14-.28-.2-.47-.2-.2 0-.35.07-.46.21-.11.12-.17.34-.17.65Zm3.98-1.54.47 1.87.47-1.87h1.24v3.07h-.78v-2.34l-.6 2.34h-.7l-.6-2.34v2.34h-.78v-3.07h1.27Zm2.8 0h1.57c.35 0 .6.09.76.25.17.17.26.4.26.7 0 .3-.1.56-.28.72-.18.19-.48.27-.85.27h-.52v1.14H66v-3.08Zm.94 1.31h.24c.18 0 .3-.03.39-.1.07-.06.1-.13.1-.23s-.02-.18-.09-.25c-.07-.07-.18-.1-.36-.1h-.27v.68Zm2.15-1.31h.94v2.32h1.48v.75H69.1v-3.07Zm2.9 0h.94v3.07H72v-3.07Zm3.51 2.55h-1.08l-.15.5h-.96l1.16-3.06h1.03l1.16 3.06h-1l-.16-.5Zm-.2-.65-.33-1.1-.34 1.1h.67Zm1.65-1.9h.88l1.15 1.7v-1.7h.9v3.07h-.9l-1.14-1.69v1.69h-.9v-3.07Zm3.35 0h2.88v.75h-.96v2.32h-.95V17.1h-.96v-.75h-.02Zm-34.6 4.67 2.75-.86-.9-1.98c-.65.82-1.3 1.88-1.85 2.84ZM44.77 12 39.39 0 0 2.23 10.91 32l21-6.62c-1.33-1.92-1.82-4.2-.27-5.32 1.73-1.26 4.33.2 6 2.24 1.6-2.68 6.1-8.9 7.13-10.31Z"/>
  <path fill="#FEFEFE" d="M38.16 8.66c1.64 0 2.98-1.25 2.98-2.81s-1.34-2.82-2.98-2.82-2.98 1.26-2.98 2.82c0 1.54 1.34 2.81 2.98 2.81Zm-2.44 1.21h4.88v12.76h-4.88V9.87Zm-2.41 3.73c.04.01.07 0 .07-.05v-3.23c0-.04-.03-.08-.07-.11 0 0-.64-.42-2.6-.53-.09-.06-1.8-.07-2.26 0-7.11.57-7.38 5.71-7.38 5.94v1.25c0 .15 0 5.4 7.38 5.87.72.05 2.13 0 2.27 0 1.7 0 2.87-.52 2.87-.52a.1.1 0 0 0 .07-.1V19.1c0-.04-.03-.05-.06-.03 0 0-.53.42-2.84.66-.66.07-.98.04-1.21 0-3.3-.56-3.45-2.96-3.45-2.96l-.01-.14v-.92l.01-.14s.23-2.57 3.45-2.85h1.2c1.42.18 2.56.88 2.56.88ZM7.53 22.59c0 .04.02.07.07.07h4.75c.04 0 .07-.03.07-.07v-3.71c0-.04.03-.07.07-.07 0 0 7.6.54 7.6-4.55 0-4.02-4.77-4.46-6.33-4.39H7.6c-.05 0-.07.03-.07.07V22.6Zm4.8-6.61v-3.33h1.17s1.7.07 1.83 1.22c.03.09.03.66 0 .69-.22 1.35-1.69 1.42-1.69 1.42h-1.3Z"/>
  <path fill="#2BBC5D" d="M38.3 28.78c.39 0 .7 0 1.2-.22 1.73-.9 7.57-15.17 13.73-19.56a.42.42 0 0 0 .1-.1c.05-.06.05-.12.05-.12s0-.3-.9-.3C47 8.34 41.3 19.84 38.3 24.39c-.04.05-.24 0-.24 0s-2-2.37-3.75-3.28c-.04-.01-.23-.08-.44-.07-.14 0-.95.17-1.33.56-.44.47-.43.74-.43 1.3 0 .05.03.25.09.34.43.76 2.36 3.43 3.97 4.9.23.2.61.65 2.13.65Z"/>
  <path fill="#225E63" d="M54.84 4.7h4.56c.9 0 1.63.12 2.18.36.55.25 1.01.6 1.36 1.04.36.46.63 1 .78 1.6.17.6.25 1.23.25 1.92 0 1.06-.12 1.88-.36 2.46a4.09 4.09 0 0 1-1 1.48c-.44.4-.9.66-1.38.8-.67.18-1.29.26-1.83.26h-4.56V4.7Zm3.07 2.24v5.42h.75c.64 0 1.1-.07 1.37-.2.26-.15.49-.4.64-.75.15-.34.24-.93.24-1.72 0-1.06-.17-1.77-.52-2.16-.35-.4-.9-.59-1.71-.59h-.77Zm6.91 4.4 2.93-.18c.07.48.2.84.39 1.1.32.4.77.59 1.35.59.43 0 .78-.1 1.02-.3.24-.22.36-.45.36-.72a.95.95 0 0 0-.33-.7c-.23-.2-.76-.38-1.58-.57a6.78 6.78 0 0 1-2.88-1.2 2.4 2.4 0 0 1-.87-1.93c0-.52.16-1 .45-1.45.3-.46.74-.8 1.34-1.07.6-.27 1.4-.4 2.44-.4 1.26 0 2.24.24 2.9.72.66.47 1.05 1.22 1.18 2.25l-2.9.17c-.08-.44-.24-.77-.49-.97a1.52 1.52 0 0 0-1.02-.31c-.36 0-.62.07-.8.22a.7.7 0 0 0-.27.56c0 .15.07.3.22.43.14.13.5.25 1.04.36a14 14 0 0 1 2.88.88c.59.3 1 .67 1.27 1.1a3.13 3.13 0 0 1-.14 3.23c-.35.55-.85.95-1.48 1.23a5.9 5.9 0 0 1-2.4.42c-1.68 0-2.85-.32-3.5-.97a3.9 3.9 0 0 1-1.1-2.49Zm9.8 0 2.93-.18c.07.48.2.84.39 1.1.32.4.76.59 1.35.59.43 0 .78-.1 1.02-.3.23-.22.36-.45.36-.72a.95.95 0 0 0-.34-.7c-.22-.2-.75-.38-1.57-.57a6.78 6.78 0 0 1-2.89-1.2 2.45 2.45 0 0 1-.86-1.93c0-.52.15-1 .45-1.45.29-.46.74-.8 1.33-1.07.6-.27 1.41-.4 2.44-.4 1.27 0 2.25.24 2.9.72.67.47 1.06 1.22 1.19 2.25l-2.9.17c-.09-.44-.24-.77-.49-.97a1.53 1.53 0 0 0-1.02-.31c-.36 0-.62.07-.8.22a.7.7 0 0 0-.27.56c0 .15.07.3.22.43.14.13.5.25 1.03.36 1.34.3 2.3.59 2.89.88.58.3 1 .67 1.27 1.1a3.13 3.13 0 0 1-.14 3.23c-.35.55-.85.95-1.48 1.23s-1.43.42-2.4.42c-1.68 0-2.85-.32-3.5-.97a3.82 3.82 0 0 1-1.11-2.49Z"/>
</svg>