<svg width="33" height="32" viewBox="0 0 33 32" fill="none" xmlns="http://www.w3.org/2000/svg">
<g clip-path="url(#clip0_908_134)">
<path d="M0 0.000244141H32V17.2748L30.4161 19.7497L32 21.9523V32.0002H0V15.7156L0.989946 14.5772L0 13.4883V0.000244141Z" fill="#016FD0"/>
<path d="M6.21191 22.2986V17.2747H11.5314L12.1021 18.0187L12.6917 17.2747H32V21.9522C32 21.9522 31.4951 22.2936 30.9111 22.2986H20.2196L19.5762 21.5067V22.2986H17.4676V20.9467C17.4676 20.9467 17.1796 21.1354 16.5568 21.1354H15.8391V22.2986H12.6466L12.0767 21.5387L11.498 22.2986H6.21191Z" fill="white"/>
<path d="M0 13.488L1.19956 10.6914H3.27407L3.95483 12.2579V10.6914H6.53364L6.9389 11.8237L7.33178 10.6914H18.908V11.2606C18.908 11.2606 19.5165 10.6914 20.5166 10.6914L24.2727 10.7045L24.9417 12.2506V10.6914H27.0998L27.6937 11.5795V10.6914H29.8716V15.7154H27.6937L27.1245 14.8244V15.7154H23.9538L23.635 14.9234H22.7826L22.4689 15.7154H20.3186C19.4581 15.7154 18.908 15.1578 18.908 15.1578V15.7154H15.6659L15.0224 14.9234V15.7154H2.96674L2.6481 14.9234H1.79843L1.48204 15.7154H0V13.488Z" fill="white"/>
<path d="M1.62429 11.3108L0.00634766 15.0726H1.05971L1.35824 14.3193H3.09374L3.39072 15.0726H4.46729L2.85089 11.3108H1.62429ZM2.2229 12.1863L2.7519 13.5026H1.69235L2.2229 12.1863Z" fill="#016FD0"/>
<path d="M4.57861 15.0721V11.3103L6.0755 11.3159L6.94614 13.7412L7.79594 11.3103H9.28086V15.0721H8.34041V12.3002L7.34351 15.0721H6.51874L5.51906 12.3002V15.0721H4.57861Z" fill="#016FD0"/>
<path d="M9.92432 15.0721V11.3103H12.9931V12.1518H10.8747V12.7952H12.9437V13.5872H10.8747V14.2554H12.9931V15.0721H9.92432Z" fill="#016FD0"/>
<path d="M13.5376 11.3108V15.0726H14.478V13.7362H14.874L16.0016 15.0726H17.1509L15.9135 13.6867C16.4213 13.6438 16.9452 13.2079 16.9452 12.5312C16.9452 11.7396 16.3238 11.3108 15.6304 11.3108H13.5376ZM14.478 12.1522H15.5531C15.8109 12.1522 15.9985 12.354 15.9985 12.5482C15.9985 12.7981 15.7555 12.9442 15.567 12.9442H14.478V12.1522Z" fill="#016FD0"/>
<path d="M18.2893 15.0721H17.3291V11.3103H18.2893V15.0721Z" fill="#016FD0"/>
<path d="M20.5661 15.0721H20.3588C19.356 15.0721 18.7471 14.282 18.7471 13.2067C18.7471 12.1048 19.3491 11.3103 20.6156 11.3103H21.655V12.2013H20.5776C20.0635 12.2013 19.6999 12.6025 19.6999 13.2159C19.6999 13.9445 20.1156 14.2504 20.7146 14.2504H20.9621L20.5661 15.0721Z" fill="#016FD0"/>
<path d="M22.6126 11.3108L20.9946 15.0726H22.048L22.3465 14.3193H24.082L24.379 15.0726H25.4556L23.8392 11.3108H22.6126ZM23.2112 12.1863L23.7402 13.5026H22.6806L23.2112 12.1863Z" fill="#016FD0"/>
<path d="M25.5654 15.0721V11.3103H26.7611L28.2878 13.6738V11.3103H29.2282V15.0721H28.0712L26.5059 12.6467V15.0721H25.5654Z" fill="#016FD0"/>
<path d="M6.85547 21.6551V17.8933H9.9243V18.7348H7.80582V19.3782H9.8748V20.1702H7.80582V20.8384H9.9243V21.6551H6.85547Z" fill="#016FD0"/>
<path d="M21.8926 21.6551V17.8933H24.9614V18.7348H22.8429V19.3782H24.902V20.1702H22.8429V20.8384H24.9614V21.6551H21.8926Z" fill="#016FD0"/>
<path d="M10.0434 21.6551L11.5376 19.7974L10.0078 17.8933H11.1927L12.1037 19.0704L13.0179 17.8933H14.1563L12.6466 19.7742L14.1436 21.6551H12.9589L12.0743 20.4966L11.2112 21.6551H10.0434Z" fill="#016FD0"/>
<path d="M14.2554 17.894V21.6558H15.2206V20.4679H16.2105C17.0481 20.4679 17.6831 20.0235 17.6831 19.1593C17.6831 18.4434 17.1851 17.894 16.3327 17.894H14.2554ZM15.2206 18.7448H16.2631C16.5337 18.7448 16.7271 18.9106 16.7271 19.1779C16.7271 19.4289 16.5347 19.611 16.26 19.611H15.2206V18.7448Z" fill="#016FD0"/>
<path d="M18.0913 17.8933V21.6551H19.0318V20.3187H19.4277L20.5553 21.6551H21.7046L20.4672 20.2692C20.975 20.2263 21.4989 19.7904 21.4989 19.1137C21.4989 18.3221 20.8776 17.8933 20.1841 17.8933H18.0913ZM19.0318 18.7348H20.1068C20.3647 18.7348 20.5523 18.9365 20.5523 19.1307C20.5523 19.3807 20.3092 19.5267 20.1207 19.5267H19.0318V18.7348Z" fill="#016FD0"/>
<path d="M25.3972 21.6551V20.8384H27.2794C27.5579 20.8384 27.6785 20.6879 27.6785 20.5229C27.6785 20.3647 27.5582 20.2048 27.2794 20.2048H26.4289C25.6896 20.2048 25.2778 19.7544 25.2778 19.0782C25.2778 18.475 25.6549 17.8933 26.7535 17.8933H28.5849L28.1889 18.7397H26.605C26.3022 18.7397 26.209 18.8986 26.209 19.0503C26.209 19.2063 26.3242 19.3782 26.5555 19.3782H27.4464C28.2706 19.3782 28.6282 19.8457 28.6282 20.4579C28.6282 21.116 28.2297 21.6551 27.4016 21.6551H25.3972Z" fill="#016FD0"/>
<path d="M28.8489 21.6551V20.8384H30.731C31.0095 20.8384 31.1301 20.6879 31.1301 20.5229C31.1301 20.3647 31.0099 20.2048 30.731 20.2048H29.8805C29.1412 20.2048 28.7295 19.7544 28.7295 19.0782C28.7295 18.475 29.1065 17.8933 30.2051 17.8933H32.0365L31.6406 18.7397H30.0566C29.7539 18.7397 29.6607 18.8986 29.6607 19.0503C29.6607 19.2063 29.7758 19.3782 30.0071 19.3782H30.8981C31.7222 19.3782 32.0798 19.8457 32.0798 20.4579C32.0798 21.116 31.6813 21.6551 30.8532 21.6551H28.8489Z" fill="#016FD0"/>
</g>
<defs>
<clipPath id="clip0_908_134">
<rect width="32.0797" height="32" fill="white"/>
</clipPath>
</defs>
</svg>
