<svg width="41" height="32" viewBox="0 0 41 32" fill="none" xmlns="http://www.w3.org/2000/svg">
<path d="M23.6618 31.9998C32.4074 32.0417 40.3899 24.8671 40.3899 16.139C40.3899 6.59425 32.4074 -0.00317344 23.6618 1.14517e-06H16.1351C7.28475 -0.00317344 0 6.59622 0 16.139C0 24.869 7.28475 32.0417 16.1351 31.9998H23.6618Z" fill="#0079BE"/>
<path d="M16.1708 1.32251C8.08358 1.32505 1.53022 7.88057 1.52832 15.9714C1.53022 24.0608 8.08352 30.6157 16.1708 30.6182C24.26 30.6157 30.8147 24.0608 30.8158 15.9714C30.8146 7.88057 24.26 1.32505 16.1708 1.32251ZM6.88935 15.9714C6.89697 12.0177 9.36606 8.64634 12.8478 7.3066V24.6341C9.36606 23.2951 6.8969 19.9256 6.88935 15.9714ZM19.4926 24.6379V7.30603C22.9756 8.64253 25.4485 12.0158 25.4549 15.9714C25.4485 19.9281 22.9756 23.2989 19.4926 24.6379Z" fill="white"/>
</svg>
