<svg width="48" height="32" viewBox="0 0 48 32" fill="none" xmlns="http://www.w3.org/2000/svg">
<rect width="48" height="32" rx="2" fill="white"/>
<path d="M46.6897 18.4552H44.9848L43.0648 15.9228H42.8828V18.4552H41.4924V12.1655H43.5448C45.1503 12.1655 46.0772 12.8276 46.0772 14.0193C46.0772 14.9959 45.4979 15.6248 44.4552 15.8235L46.6897 18.4552ZM44.6372 14.069C44.6372 13.4566 44.1738 13.1421 43.3131 13.1421H42.8828V15.0455H43.28C44.1738 15.0455 44.6372 14.7145 44.6372 14.069ZM36.6262 12.1655H40.5655V13.2248H38.0165V14.6317H40.4662V15.7076H38.0165V17.4124H40.5655V18.4718H36.6262V12.1655ZM32.1572 18.6207L29.1448 12.149H30.6676L32.571 16.3862L34.491 12.149H35.9807L32.9352 18.6207H32.1903H32.1572ZM19.5614 18.6042C17.4428 18.6042 15.7876 17.1642 15.7876 15.2938C15.7876 13.4731 17.4759 12 19.5945 12C20.1903 12 20.6869 12.1159 21.2993 12.3807V13.8372C20.8355 13.3816 20.2115 13.1261 19.5614 13.1255C18.2372 13.1255 17.2276 14.0855 17.2276 15.2938C17.2276 16.5683 18.2207 17.4786 19.6276 17.4786C20.2566 17.4786 20.7366 17.28 21.2993 16.7835V18.24C20.6703 18.5049 20.1407 18.6042 19.5614 18.6042ZM15.3572 16.5352C15.3572 17.76 14.3476 18.6042 12.891 18.6042C11.8317 18.6042 11.0703 18.24 10.4248 17.4124L11.3352 16.6345C11.6497 17.1973 12.1793 17.4786 12.8414 17.4786C13.4703 17.4786 13.9172 17.098 13.9172 16.6014C13.9172 16.32 13.7848 16.1048 13.5034 15.9393C13.1949 15.7896 12.8737 15.6677 12.5434 15.5752C11.2359 15.1614 10.789 14.7145 10.789 13.8372C10.789 12.811 11.749 12.0331 13.0069 12.0331C13.8014 12.0331 14.5131 12.2814 15.109 12.7448L14.3807 13.5724C14.092 13.256 13.6835 13.0757 13.2552 13.0759C12.6593 13.0759 12.229 13.3738 12.229 13.771C12.229 14.1021 12.4772 14.2841 13.3048 14.5655C14.8938 15.0621 15.3572 15.5255 15.3572 16.5517V16.5352ZM8.52138 12.1655H9.91172V18.4718H8.52138V12.1655ZM4.05241 18.4718H2V12.1655H4.05241C6.30345 12.1655 7.85931 13.4566 7.85931 15.3104C7.85931 16.2538 7.39586 17.1476 6.58483 17.7435C5.88965 18.24 5.11172 18.4718 4.03586 18.4718H4.05241ZM5.67448 13.7379C5.21103 13.3738 4.68138 13.2414 3.77103 13.2414H3.39034V17.4124H3.77103C4.66483 17.4124 5.22759 17.2469 5.67448 16.9159C6.15448 16.5186 6.43586 15.9228 6.43586 15.3104C6.43586 14.6979 6.15448 14.1186 5.67448 13.7379Z" fill="black"/>
<path d="M25.1727 12C23.352 12 21.8623 13.4566 21.8623 15.2607C21.8623 17.1807 23.2858 18.6207 25.1727 18.6207C27.0264 18.6207 28.483 17.1642 28.483 15.3104C28.483 13.4566 27.043 12 25.1727 12Z" fill="#F27712"/>
</svg>
