<svg width="51" height="32" viewBox="0 0 51 32" fill="none" xmlns="http://www.w3.org/2000/svg">
<g clip-path="url(#clip0_908_25)">
<path d="M50.3756 32H0V-4.75484e-06H50.3756V32Z" fill="white"/>
<path d="M0.838867 26.8001H49.5353V31.1665H0.838867V26.8001Z" fill="#F7B600"/>
<path d="M0.838867 5.20532H49.5353V0.839395H0.838867V5.20532Z" fill="#1A1F71"/>
<mask id="mask0_908_25" style="mask-type:luminance" maskUnits="userSpaceOnUse" x="-47" y="-77" width="144" height="186">
<path d="M-46.3184 -76.5369H96.4138V108.175H-46.3184V-76.5369Z" fill="white"/>
</mask>
<g mask="url(#mask0_908_25)">
<path d="M24.2192 9.14696L21.7788 20.5555H18.8271L21.2676 9.14696H24.2192ZM36.636 16.5135L38.1902 12.2292L39.083 16.5135H36.636ZM39.9307 20.5555H42.6597L40.2754 9.14696H37.7576C37.1897 9.14696 36.7125 9.4765 36.5007 9.98329L32.0718 20.5555H35.1714L35.7861 18.8513H39.573L39.9307 20.5555ZM32.2258 16.8307C32.2381 13.8203 28.0632 13.6533 28.0905 12.3081C28.1005 11.8992 28.49 11.4638 29.3427 11.3525C29.765 11.298 30.9319 11.2544 32.2535 11.8633L32.7706 9.44268C32.0604 9.18591 31.1467 8.93869 30.0099 8.93869C27.0921 8.93869 25.0395 10.4885 25.0232 12.7094C25.004 14.3523 26.4892 15.2679 27.6061 15.815C28.7566 16.3738 29.1423 16.733 29.137 17.2323C29.1288 17.9978 28.2183 18.3366 27.3717 18.3492C25.8872 18.3728 25.0267 17.9481 24.3403 17.6283L23.8046 20.1292C24.4951 20.4457 25.7678 20.7206 27.086 20.7346C30.1879 20.7346 32.2167 19.2026 32.2258 16.8307ZM20.0014 9.14696L15.2194 20.5555H12.0994L9.74592 11.4505C9.60342 10.891 9.47934 10.6851 9.04508 10.4486C8.33539 10.0631 7.16344 9.70249 6.1333 9.47813L6.2028 9.14696H11.2257C11.865 9.14696 12.4406 9.57259 12.5868 10.3096L13.8303 16.9119L16.9003 9.14696H20.0014Z" fill="#1A1F71"/>
<path d="M27.9965 23.6959H26.7972V24.8121H28.1387V25.1477H26.3931V22.051H28.0699V22.3866H26.7972V23.365H27.9965V23.6959Z" fill="#1A1F71"/>
<path d="M28.7583 21.8859H29.1625V25.1477H28.7583V21.8859Z" fill="#1A1F71"/>
<path d="M31.3674 23.8199C31.372 23.5673 31.2617 23.1676 30.8069 23.1676C30.3934 23.1676 30.2188 23.5398 30.1866 23.8199H31.3674ZM30.1821 24.1093C30.1912 24.6562 30.5359 24.8813 30.9445 24.8813C31.2342 24.8813 31.4133 24.8307 31.5605 24.7665L31.6339 25.056C31.4914 25.1201 31.2435 25.1982 30.8895 25.1982C30.2052 25.1982 29.7964 24.7435 29.7964 24.0727C29.7964 23.402 30.1912 22.8781 30.8391 22.8781C31.5696 22.8781 31.758 23.5123 31.758 23.9211C31.758 24.0037 31.7534 24.0634 31.744 24.1093H30.1821Z" fill="#1A1F71"/>
<path d="M33.9576 25.0695C33.8519 25.1201 33.6175 25.1982 33.319 25.1982C32.6483 25.1982 32.2119 24.7435 32.2119 24.0634C32.2119 23.3789 32.6802 22.8781 33.4062 22.8781C33.6451 22.8781 33.8564 22.9376 33.9667 22.9976L33.875 23.3054C33.7782 23.2548 33.6266 23.1995 33.4062 23.1995C32.8962 23.1995 32.6208 23.5808 32.6208 24.0405C32.6208 24.555 32.9515 24.872 33.3925 24.872C33.6222 24.872 33.7738 24.8169 33.8886 24.7663L33.9576 25.0695Z" fill="#1A1F71"/>
<path d="M35.0918 22.3912V22.9241H35.6705V23.2317H35.0918V24.4309C35.0918 24.7068 35.17 24.8629 35.395 24.8629C35.5051 24.8629 35.5697 24.8538 35.6294 24.8351L35.6478 25.1432C35.5697 25.1707 35.4456 25.1982 35.2894 25.1982C35.1009 25.1982 34.9493 25.1339 34.853 25.0285C34.7427 24.9041 34.6968 24.7068 34.6968 24.4449V23.2317H34.3521V22.9241H34.6968V22.5106L35.0918 22.3912Z" fill="#1A1F71"/>
<path d="M36.2352 23.6178C36.2352 23.3559 36.2303 23.1308 36.2168 22.9239H36.5706L36.589 23.365H36.6025C36.7038 23.0664 36.9517 22.878 37.2227 22.878C37.2642 22.878 37.2964 22.8826 37.3332 22.8871V23.2686C37.2917 23.2593 37.2507 23.2593 37.1952 23.2593C36.9106 23.2593 36.7082 23.4706 36.6532 23.774C36.6441 23.8291 36.6394 23.8979 36.6394 23.9625V25.1477H36.2352V23.6178Z" fill="#1A1F71"/>
<path d="M38.0583 24.0405C38.0583 24.5275 38.334 24.8951 38.729 24.8951C39.115 24.8951 39.4042 24.5319 39.4042 24.0312C39.4042 23.6545 39.216 23.1811 38.7381 23.1811C38.2652 23.1811 38.0583 23.6224 38.0583 24.0405ZM39.818 24.0174C39.818 24.8398 39.2435 25.1982 38.7106 25.1982C38.1133 25.1982 37.645 24.757 37.645 24.0543C37.645 23.3145 38.1364 22.8781 38.7475 22.8781C39.386 22.8781 39.818 23.342 39.818 24.0174Z" fill="#1A1F71"/>
<path d="M40.4374 23.5259C40.4374 23.2917 40.4325 23.1079 40.4189 22.9242H40.7772L40.8003 23.2917H40.8094C40.9197 23.0849 41.1769 22.8782 41.5445 22.8782C41.8521 22.8782 42.33 23.062 42.33 23.8244V25.1477H41.9258V23.8659C41.9258 23.5077 41.7926 23.2089 41.4113 23.2089C41.1494 23.2089 40.9425 23.3974 40.8693 23.6224C40.8506 23.673 40.8415 23.7418 40.8415 23.8109V25.1477H40.4374V23.5259Z" fill="#1A1F71"/>
</g>
</g>
<defs>
<clipPath id="clip0_908_25">
<rect width="50.3756" height="32" fill="white"/>
</clipPath>
</defs>
</svg>
