<svg width="42" height="32" viewBox="0 0 42 32" fill="none" xmlns="http://www.w3.org/2000/svg">
<g clip-path="url(#clip0_909_2)">
<path d="M41.3285 25.4667C41.3285 28.9915 38.4582 31.8617 34.9334 31.8617H0.138184V6.53325C0.138184 3.00841 3.00841 0.138184 6.53325 0.138184H41.3285V25.4667Z" fill="white"/>
<path d="M29.9985 18.971H32.6422C32.7177 18.971 32.8939 18.9458 32.9695 18.9458C33.473 18.8451 33.901 18.3919 33.901 17.7625C33.901 17.1582 33.473 16.705 32.9695 16.5791C32.8939 16.554 32.7429 16.554 32.6422 16.554H29.9985V18.971Z" fill="url(#paint0_linear_909_2)"/>
<path d="M32.3399 2.27832C29.8221 2.27832 27.7576 4.31769 27.7576 6.86061V11.6191H34.2282C34.3793 11.6191 34.5555 11.6191 34.6814 11.6443C36.1417 11.7199 37.2243 12.4752 37.2243 13.7844C37.2243 14.8167 36.4942 15.6979 35.1346 15.8741V15.9245C36.6201 16.0252 37.753 16.856 37.753 18.1401C37.753 19.5249 36.4942 20.4312 34.8325 20.4312H27.7324V29.7469H34.4548C36.9725 29.7469 39.0371 27.7075 39.0371 25.1646V2.27832H32.3399Z" fill="url(#paint1_linear_909_2)"/>
<path d="M33.5737 14.0866C33.5737 13.4823 33.1457 13.0795 32.6422 13.0039C32.5918 13.0039 32.4659 12.9788 32.3904 12.9788H29.9985V15.1944H32.3904C32.4659 15.1944 32.617 15.1944 32.6422 15.1692C33.1457 15.0937 33.5737 14.6908 33.5737 14.0866Z" fill="url(#paint2_linear_909_2)"/>
<path d="M7.01177 2.27832C4.49402 2.27832 2.42947 4.31769 2.42947 6.86061V18.1653C3.71352 18.7947 5.04793 19.1975 6.38233 19.1975C7.96851 19.1975 8.82454 18.2408 8.82454 16.9316V11.594H12.7522V16.9064C12.7522 18.971 11.4682 20.6578 7.11248 20.6578C4.46885 20.6578 2.4043 20.0788 2.4043 20.0788V29.7217H9.12667C11.6444 29.7217 13.709 27.6823 13.709 25.1394V2.27832H7.01177Z" fill="url(#paint3_linear_909_2)"/>
<path d="M19.676 2.27832C17.1583 2.27832 15.0938 4.31769 15.0938 6.86061V12.8528C16.2519 11.8709 18.2661 11.2415 21.514 11.3925C23.2512 11.4681 25.1144 11.9465 25.1144 11.9465V13.8851C24.1828 13.4067 23.075 12.9787 21.6399 12.878C19.1725 12.7018 17.687 13.9103 17.687 16.0252C17.687 18.1653 19.1725 19.3738 21.6399 19.1724C23.075 19.0717 24.1828 18.6185 25.1144 18.1653V20.1039C25.1144 20.1039 23.2764 20.5823 21.514 20.6578C18.2661 20.8089 16.2519 20.1795 15.0938 19.1975V29.7721H21.8161C24.3339 29.7721 26.3984 27.7327 26.3984 25.1898V2.27832H19.676Z" fill="url(#paint4_linear_909_2)"/>
</g>
<defs>
<linearGradient id="paint0_linear_909_2" x1="27.7535" y1="17.7655" x2="39.0676" y2="17.7655" gradientUnits="userSpaceOnUse">
<stop stop-color="#007940"/>
<stop offset="0.2285" stop-color="#00873F"/>
<stop offset="0.7433" stop-color="#40A737"/>
<stop offset="1" stop-color="#5CB531"/>
</linearGradient>
<linearGradient id="paint1_linear_909_2" x1="27.7531" y1="16.0016" x2="39.068" y2="16.0016" gradientUnits="userSpaceOnUse">
<stop stop-color="#007940"/>
<stop offset="0.2285" stop-color="#00873F"/>
<stop offset="0.7433" stop-color="#40A737"/>
<stop offset="1" stop-color="#5CB531"/>
</linearGradient>
<linearGradient id="paint2_linear_909_2" x1="27.7533" y1="14.0834" x2="39.0678" y2="14.0834" gradientUnits="userSpaceOnUse">
<stop stop-color="#007940"/>
<stop offset="0.2285" stop-color="#00873F"/>
<stop offset="0.7433" stop-color="#40A737"/>
<stop offset="1" stop-color="#5CB531"/>
</linearGradient>
<linearGradient id="paint3_linear_909_2" x1="2.42414" y1="16.0016" x2="13.9134" y2="16.0016" gradientUnits="userSpaceOnUse">
<stop stop-color="#1F286F"/>
<stop offset="0.4751" stop-color="#004E94"/>
<stop offset="0.8261" stop-color="#0066B1"/>
<stop offset="1" stop-color="#006FBC"/>
</linearGradient>
<linearGradient id="paint4_linear_909_2" x1="15.0287" y1="16.0016" x2="26.1874" y2="16.0016" gradientUnits="userSpaceOnUse">
<stop stop-color="#6C2C2F"/>
<stop offset="0.1735" stop-color="#882730"/>
<stop offset="0.5731" stop-color="#BE1833"/>
<stop offset="0.8585" stop-color="#DC0436"/>
<stop offset="1" stop-color="#E60039"/>
</linearGradient>
<clipPath id="clip0_909_2">
<rect width="41.4667" height="32" fill="white"/>
</clipPath>
</defs>
</svg>
