<svg xmlns="http://www.w3.org/2000/svg" fill="none" viewBox="0 0 118 32">
  <path fill="#0F754E" fill-rule="evenodd" d="M10.85 0C11.9 0 15-.27 16.33 4.18c.89 3 2.3 7.91 4.25 14.74h.79c2.08-7.2 3.51-12.11 4.3-14.74C27-.33 30.32.01 31.66.01h10.28V32H31.46V13.15h-.7L24.92 32h-7.89l-5.84-18.87h-.7V32H0V0h10.85ZM57 0v18.87h.84l7.1-15.51C66.32.27 69.27 0 69.27 0H79.4v32H68.7V13.13h-.84L60.9 28.65A5.79 5.79 0 0 1 56.44 32H46.3V0H57Zm59.4 15.21c-1.5 4.23-6.18 7.26-11.37 7.26H93.8V32H83.63V15.2h32.77Z" clip-rule="evenodd"/>
  <path fill="url(#a)" fill-rule="evenodd" d="M105.52 0H83.1c.53 7.13 6.66 13.23 13.01 13.23h21C118.3 7.3 114.15 0 105.52 0Z" clip-rule="evenodd"/>
  <defs>
    <linearGradient id="a" x1="117.31" x2="83.1" y1="8.32" y2="8.32" gradientUnits="userSpaceOnUse">
      <stop stop-color="#1F5CD7"/>
      <stop offset="1" stop-color="#02AEFF"/>
    </linearGradient>
  </defs>
</svg>