<svg width="52" height="32" viewBox="0 0 52 32" fill="none" xmlns="http://www.w3.org/2000/svg">
<path d="M51.2882 25.9158V25.2944H51.1328L50.9516 25.7087L50.7704 25.2944H50.615V25.9158H50.7186V25.4498L50.8998 25.864H51.0293L51.2105 25.4498V25.9158H51.2882ZM50.2526 25.9158V25.398H50.4597V25.2944H49.9419V25.398H50.149V25.9158H50.2526Z" fill="#00A2E5"/>
<path d="M32.88 28.5824H18.8735V3.41736H32.88V28.5824Z" fill="#7375CF"/>
<path d="M19.7799 16C19.7799 10.8997 22.1618 6.34304 25.89 3.41748C23.1715 1.26861 19.7282 0 16 0C7.17152 0 0 7.17152 0 16C0 24.8285 7.17152 32 16 32C19.7282 32 23.1715 30.7314 25.89 28.5825C22.1618 25.657 19.7799 21.1003 19.7799 16Z" fill="#EB001B"/>
<path d="M51.7796 16C51.7796 24.8285 44.6081 32 35.7796 32C32.0515 32 28.6081 30.7314 25.8896 28.5825C29.6178 25.657 31.9997 21.1003 31.9997 16C31.9997 10.8997 29.6178 6.34304 25.8896 3.41748C28.6081 1.26861 32.0515 0 35.7796 0C44.6081 0 51.7796 7.17152 51.7796 16Z" fill="#00A2E5"/>
</svg>
