<svg width="52" height="32" viewBox="0 0 52 32" fill="none" xmlns="http://www.w3.org/2000/svg">
<g clip-path="url(#clip0_908_9)">
<path d="M10.0083 0.00012207H22.764C24.5446 0.00012207 25.652 1.45145 25.2367 3.23794L19.298 28.7351C18.8789 30.5153 17.0961 31.9679 15.3143 31.9679H2.5598C0.781708 31.9679 -0.328241 30.5153 0.0871347 28.7351L6.02832 3.23794C6.4437 1.45145 8.22552 0.00012207 10.0083 0.00012207Z" fill="#E21836"/>
<path d="M21.7028 0.00012207H36.3715C38.1518 0.00012207 37.349 1.45145 36.9302 3.23794L30.9925 28.7351C30.5759 30.5153 30.7058 31.9679 28.9218 31.9679H14.2531C12.4691 31.9679 11.365 30.5153 11.7841 28.7351L17.7216 3.23794C18.1432 1.45145 19.9213 0.00012207 21.7028 0.00012207Z" fill="#00447C"/>
<path d="M35.7896 0.00012207H48.5453C50.3284 0.00012207 51.4358 1.45145 51.0171 3.23794L45.0793 28.7351C44.6602 30.5153 42.8762 31.9679 41.0934 31.9679H28.3436C26.5596 31.9679 25.4531 30.5153 25.8709 28.7351L31.8096 3.23794C32.225 1.45145 34.0056 0.00012207 35.7896 0.00012207Z" fill="#007B84"/>
<path d="M13.3394 8.17124C12.0277 8.18461 11.6403 8.17124 11.5165 8.14201C11.469 8.36805 10.5838 12.4512 10.5813 12.4547C10.3907 13.2807 10.2521 13.8696 9.78105 14.2498C9.51366 14.4709 9.20151 14.5775 8.83961 14.5775C8.2579 14.5775 7.919 14.2887 7.86211 13.7409L7.85123 13.5528C7.85123 13.5528 8.02844 12.4463 8.02844 12.44C8.02844 12.44 8.95744 8.71906 9.12378 8.2272C9.13249 8.19922 9.13497 8.18461 9.13715 8.17124C7.3289 8.1871 7.00835 8.17124 6.98627 8.14201C6.97415 8.18212 6.92938 8.41282 6.92938 8.41282L5.98079 12.6067L5.89933 12.9624L5.7417 14.1258C5.7417 14.4709 5.80948 14.7526 5.94441 14.9907C6.37658 15.7459 7.60934 15.8591 8.30671 15.8591C9.20524 15.8591 10.0481 15.6682 10.6177 15.3197C11.6064 14.7355 11.8651 13.8223 12.0958 13.0109L12.2027 12.5946C12.2027 12.5946 13.1597 8.72995 13.3223 8.2272C13.3285 8.19922 13.331 8.18461 13.3394 8.17124ZM16.5955 11.2889C16.3648 11.2889 15.9432 11.3448 15.5645 11.5304C15.4271 11.601 15.2971 11.6825 15.16 11.7636L15.2838 11.3168L15.216 11.2416C14.4129 11.4042 14.2332 11.426 13.4914 11.5304L13.4292 11.5718C13.3431 12.286 13.2666 12.8229 12.9473 14.2267C12.8257 14.744 12.6995 15.2663 12.5729 15.7824L12.6071 15.8481C13.3673 15.8079 13.598 15.8079 14.2587 15.8188L14.3122 15.7607C14.3961 15.3307 14.407 15.23 14.5929 14.3591C14.6803 13.9462 14.8625 13.039 14.9523 12.7159C15.1174 12.6395 15.2803 12.5642 15.4358 12.5642C15.8061 12.5642 15.761 12.8873 15.7467 13.016C15.7308 13.2321 15.5959 13.9378 15.4576 14.5438L15.3652 14.9349C15.3009 15.2237 15.2303 15.5045 15.1659 15.7908L15.1939 15.8481C15.9432 15.8079 16.1717 15.8079 16.8116 15.8188L16.8868 15.7607C17.0025 15.0891 17.0364 14.9094 17.2416 13.9316L17.3448 13.4823C17.5453 12.6031 17.646 12.1572 17.4943 11.7941C17.3339 11.3871 16.949 11.2889 16.5955 11.2889ZM20.2329 12.2094C19.8346 12.2859 19.5806 12.3369 19.3281 12.3699C19.0779 12.41 18.8338 12.4463 18.4489 12.4998L18.4184 12.5275L18.3904 12.5496C18.3503 12.8362 18.3223 13.084 18.2692 13.3754C18.2241 13.6766 18.1548 14.0189 18.0419 14.5108C17.9545 14.8873 17.9095 15.0185 17.8597 15.151C17.8112 15.2834 17.7577 15.4121 17.6595 15.7824L17.6825 15.8166L17.7018 15.848C18.0615 15.8309 18.2968 15.8188 18.5387 15.8166C18.7803 15.8079 19.0306 15.8166 19.418 15.8188L19.4519 15.7911L19.4883 15.7607C19.5442 15.4267 19.5526 15.3369 19.5868 15.174C19.6207 14.9992 19.6792 14.7573 19.8225 14.1113C19.8903 13.8078 19.9658 13.5053 20.0361 13.1956C20.1091 12.8872 20.1856 12.5835 20.2584 12.28L20.2475 12.2433L20.2329 12.2094ZM20.2414 10.9682C19.8795 10.7546 19.2443 10.8224 18.8168 11.1175C18.3905 11.4066 18.342 11.817 18.7027 12.0334C19.0584 12.2411 19.696 12.1792 20.1198 11.8817C20.5451 11.5863 20.5983 11.1796 20.2414 10.9682ZM22.43 15.915C23.1622 15.915 23.9128 15.7132 24.4777 15.1144C24.9123 14.6287 25.1116 13.9062 25.1807 13.6086C25.4054 12.6224 25.2304 12.162 25.0106 11.8815C24.6767 11.454 24.0866 11.3169 23.4744 11.3169C23.1063 11.3169 22.2295 11.3533 21.5446 11.9847C21.0527 12.4402 20.8254 13.0583 20.6883 13.6509C20.55 14.2547 20.3908 15.3416 21.3903 15.7461C21.6988 15.8786 22.1434 15.915 22.43 15.915ZM22.3728 13.696C22.5416 12.9492 22.7409 12.3224 23.2496 12.3224C23.6482 12.3224 23.6771 12.7888 23.4999 13.538C23.4682 13.7044 23.3227 14.3228 23.1258 14.5861C22.9884 14.7804 22.8258 14.8983 22.6461 14.8983C22.5926 14.8983 22.2746 14.8983 22.2696 14.426C22.2671 14.1928 22.3147 13.9547 22.3728 13.696ZM27.011 15.8189L27.0682 15.7608C27.1493 15.3308 27.1627 15.2297 27.3424 14.3592C27.4323 13.9463 27.6182 13.0391 27.7056 12.716C27.871 12.6392 28.0311 12.564 28.1915 12.564C28.5593 12.564 28.5145 12.887 28.4999 13.0158C28.4866 13.2321 28.3516 13.9376 28.2108 14.5436L28.1234 14.9347C28.0566 15.2238 27.9838 15.5043 27.9195 15.7909L27.9474 15.8481C28.6992 15.808 28.919 15.808 29.5626 15.8189L29.6403 15.7608C29.7532 15.0889 29.7837 14.9092 29.9951 13.9317L30.0958 13.4821C30.2973 12.6029 30.3993 12.1573 30.25 11.7942C30.085 11.3872 29.6976 11.289 29.349 11.289C29.118 11.289 28.6942 11.3446 28.3177 11.5305C28.1831 11.6011 28.0482 11.6823 27.9157 11.7637L28.0311 11.3169L27.9692 11.2414C27.1664 11.4043 26.983 11.4261 26.2421 11.5305L26.1852 11.5719C26.0954 12.286 26.0223 12.8227 25.703 14.2267C25.5814 14.7441 25.4552 15.2664 25.329 15.7825L25.3628 15.8481C26.1243 15.808 26.3515 15.808 27.011 15.8189ZM32.5345 15.848C32.5817 15.6173 32.8625 14.2499 32.865 14.2499C32.865 14.2499 33.104 13.2466 33.1187 13.2102C33.1187 13.2102 33.1939 13.1058 33.2691 13.0644H33.3798C34.4242 13.0644 35.6035 13.0644 36.5278 12.3844C37.1568 11.9181 37.5868 11.2294 37.7786 10.3924C37.8283 10.1872 37.865 9.94318 37.865 9.69912C37.865 9.37857 37.8007 9.06144 37.6147 8.81364C37.1434 8.1542 36.2048 8.14208 35.1212 8.1371C35.1178 8.1371 34.5871 8.14208 34.5871 8.14208C33.2001 8.15918 32.6439 8.1542 32.4154 8.12622C32.3961 8.22727 32.3597 8.40697 32.3597 8.40697C32.3597 8.40697 31.8629 10.7096 31.8629 10.7133C31.8629 10.7133 30.674 15.6089 30.618 15.8396C31.829 15.825 32.3255 15.825 32.5345 15.848ZM33.4551 11.7577C33.4551 11.7577 33.9833 9.45971 33.9808 9.46842L33.9979 9.35059L34.0054 9.26073L34.2165 9.2825C34.2165 9.2825 35.3059 9.37608 35.3314 9.37857C35.7614 9.5449 35.9386 9.97365 35.8149 10.5333C35.702 11.0447 35.3703 11.4747 34.944 11.6824C34.593 11.8584 34.163 11.873 33.72 11.873H33.4333L33.4551 11.7577ZM36.744 13.7386C36.6044 14.3336 36.444 15.4206 37.4386 15.808C37.7557 15.9429 38.0399 15.983 38.3287 15.9684C38.6337 15.9519 38.9163 15.799 39.1781 15.5788C39.1545 15.6693 39.1309 15.7598 39.1072 15.8506L39.1523 15.9087C39.8677 15.8786 40.0897 15.8786 40.8648 15.8845L40.9351 15.831C41.0482 15.1656 41.1549 14.5196 41.449 13.2467C41.5923 12.637 41.7353 12.0332 41.8824 11.426L41.8594 11.3592C41.0591 11.5075 40.8452 11.5392 40.0754 11.6483L40.0169 11.6959C40.0092 11.7577 40.0011 11.8171 39.9936 11.8765C39.8739 11.6831 39.7004 11.518 39.4327 11.4151C39.0904 11.2805 38.2864 11.454 37.5953 12.0833C37.1096 12.5325 36.8764 13.1481 36.744 13.7386ZM38.4248 13.7749C38.5961 13.0415 38.7929 12.4209 39.3028 12.4209C39.6252 12.4209 39.795 12.7185 39.7604 13.2259C39.7331 13.3524 39.7036 13.4858 39.6684 13.6366C39.6174 13.8545 39.5621 14.0706 39.5083 14.287C39.4536 14.435 39.3898 14.5746 39.3199 14.6676C39.1887 14.8535 38.8765 14.9688 38.6968 14.9688C38.6458 14.9688 38.3312 14.9688 38.3203 14.5049C38.3178 14.2739 38.3654 14.0361 38.4248 13.7749ZM47.2019 11.3532L47.1401 11.2826C46.3482 11.4431 46.2048 11.4686 45.4773 11.5668L45.4238 11.6203C45.4213 11.629 45.4192 11.6424 45.4154 11.6545L45.413 11.6424C44.8713 12.8919 44.8872 12.6224 44.4463 13.6061C44.4438 13.5613 44.4438 13.5333 44.4414 13.4858L44.331 11.3532L44.2617 11.2826C43.4321 11.4431 43.4126 11.4686 42.6465 11.5668L42.5868 11.6203C42.5784 11.6458 42.5784 11.6738 42.5734 11.7042L42.5784 11.7151C42.6741 12.2045 42.6511 12.0954 42.7472 12.8677C42.792 13.2467 42.8517 13.6278 42.8964 14.0022C42.972 14.6287 43.0143 14.9371 43.1066 15.8931C42.5893 16.7469 42.4668 17.0699 41.9687 17.8192L41.9721 17.8267L41.6214 18.3813C41.5813 18.4398 41.5449 18.4799 41.4939 18.497C41.438 18.5247 41.3652 18.5297 41.2642 18.5297H41.0698L40.781 19.4904L41.7719 19.5075C42.3536 19.505 42.7192 19.2329 42.916 18.8673L43.5391 17.7996H43.5291L43.5947 17.7244C44.0139 16.8221 47.2019 11.3532 47.2019 11.3532ZM36.744 23.9707H36.3236L37.8794 18.8249H38.3955L38.5594 18.2948L38.5752 18.8842C38.5559 19.2486 38.8426 19.5717 39.5956 19.5182H40.4665L40.7662 18.5273H40.4385C40.2501 18.5273 40.1627 18.4798 40.1736 18.3778L40.1578 17.778H38.5451V17.7811C38.0237 17.792 36.4666 17.8312 36.1514 17.9151C35.7699 18.0134 35.3679 18.3025 35.3679 18.3025L35.5258 17.7718H34.0173L33.703 18.8249L32.1263 24.0494H31.8204L31.5204 25.0331H34.525L34.4243 25.3611H35.9048L36.0031 25.0331H36.4184L36.744 23.9707ZM35.5112 19.8705C35.2696 19.9373 34.8201 20.14 34.8201 20.14L35.2199 18.8249H36.4184L36.1293 19.7831C36.1293 19.7831 35.759 19.8049 35.5112 19.8705ZM35.5342 21.7493C35.5342 21.7493 35.1577 21.7965 34.9099 21.8525C34.6658 21.9265 34.2082 22.1597 34.2082 22.1597L34.6211 20.7911H35.8258L35.5342 21.7493ZM34.8626 23.9829H33.6604L34.0089 22.8278H35.2074L34.8626 23.9829ZM37.758 20.7911H39.491L39.242 21.5976H37.486L37.2223 22.4793H38.7588L37.5954 24.1175C37.514 24.2378 37.4409 24.2804 37.3598 24.3143C37.2783 24.3556 37.1713 24.4041 37.0476 24.4041H36.6213L36.3285 25.3698H37.4434C38.0229 25.3698 38.3652 25.1062 38.618 24.7601L39.4158 23.6682L39.5871 24.7769C39.6235 24.9846 39.7727 25.1062 39.8738 25.1534C39.9854 25.2094 40.1007 25.3055 40.2637 25.3198C40.4384 25.3272 40.5646 25.3331 40.6486 25.3331H41.1964L41.5253 24.2524H41.3092C41.1852 24.2524 40.9716 24.2316 40.9352 24.1927C40.8988 24.1455 40.8988 24.0727 40.8793 23.962L40.7055 22.8508H39.9938L40.3059 22.4793H42.0585L42.3281 21.5976H40.7055L40.9582 20.7911H42.5759L42.8759 19.7965H38.0531L37.758 20.7911ZM23.1209 24.2074L23.5254 22.8618H25.1879L25.4916 21.861H23.8276L24.0816 21.0327H25.7077L26.009 20.0636H21.9404L21.6454 21.0327H22.5697L22.3231 21.861H21.3963L21.0891 22.8789H22.0132L21.474 24.6592C21.4013 24.8949 21.5082 24.9847 21.576 25.0942C21.6454 25.2008 21.7156 25.2714 21.8736 25.3115C22.0365 25.3479 22.1481 25.3696 22.2998 25.3696H24.174L24.5079 24.2609L23.6772 24.375C23.5167 24.375 23.0724 24.3557 23.1209 24.2074ZM23.3116 17.7657L22.8903 18.5272C22.8002 18.6935 22.719 18.7967 22.646 18.8443C22.5816 18.8844 22.4541 18.9012 22.2694 18.9012H22.0496L21.7558 19.8753H22.4858C22.8369 19.8753 23.1064 19.7466 23.2351 19.6822C23.3735 19.6082 23.4099 19.6505 23.5168 19.5473L23.7634 19.3337H26.043L26.3455 18.3195H24.6768L24.9681 17.7657H23.3116ZM26.677 24.227C26.6382 24.171 26.6661 24.0725 26.7255 23.8673L27.3486 21.805H29.5651C29.8881 21.8003 30.1213 21.7966 30.273 21.7857C30.4359 21.7686 30.6132 21.7105 30.8062 21.606C31.0055 21.4966 31.1075 21.3812 31.1936 21.2488C31.2897 21.1166 31.4439 20.8275 31.5764 20.3817L32.3595 17.7719L30.0594 17.7852C30.0594 17.7852 29.3512 17.8897 29.0393 18.0051C28.7247 18.1338 28.2751 18.4932 28.2751 18.4932L28.4828 17.7778H27.0619L25.0727 24.375C25.0022 24.6312 24.9549 24.8171 24.944 24.9287C24.9403 25.049 25.0957 25.1681 25.1965 25.258C25.3156 25.3478 25.4915 25.3332 25.6604 25.3478C25.8379 25.3612 26.0903 25.3696 26.4389 25.3696H27.5308L27.866 24.2379L26.8885 24.3302C26.784 24.3302 26.7084 24.2742 26.677 24.227ZM27.7506 20.4121H30.0787L29.9307 20.876C29.9099 20.8869 29.8601 20.853 29.6232 20.881H27.6073L27.7506 20.4121ZM28.217 18.8563H30.5647L30.3958 19.415C30.3958 19.415 29.2893 19.4041 29.1121 19.4368C28.3323 19.5717 27.8768 19.9883 27.8768 19.9883L28.217 18.8563ZM29.9828 22.4294C29.9635 22.4987 29.9331 22.541 29.8905 22.5727C29.8432 22.6032 29.7667 22.6141 29.6526 22.6141H29.3209L29.3405 22.0492H27.9607L27.9047 24.811C27.9025 25.0103 27.9218 25.1256 28.0676 25.218C28.2134 25.3333 28.6627 25.3479 29.2674 25.3479H30.1321L30.4442 24.3141L29.6915 24.3555L29.4412 24.3701C29.407 24.3555 29.3744 24.3421 29.338 24.3057C29.3063 24.2743 29.2528 24.2936 29.2615 24.0943L29.2674 23.3864L30.0568 23.3537C30.4831 23.3537 30.6653 23.2151 30.8207 23.0829C30.969 22.9564 31.0175 22.8109 31.0735 22.6141L31.2059 21.9873H30.1212L29.9828 22.4294Z" fill="#FEFEFE"/>
</g>
<defs>
<clipPath id="clip0_908_9">
<rect width="51.2" height="32" fill="white"/>
</clipPath>
</defs>
</svg>
