<svg xmlns="http://www.w3.org/2000/svg" fill="none" viewBox="0 0 99 32">
  <path fill="#1434CB" d="M64.33 0c-7.01 0-13.28 3.63-13.28 10.35 0 7.7 11.11 8.23 11.11 12.1 0 1.63-1.86 3.09-5.05 3.09-4.53 0-7.91-2.04-7.91-2.04l-1.45 6.78S51.65 32 56.82 32c7.67 0 13.7-3.81 13.7-10.64 0-8.14-11.16-8.66-11.16-12.25 0-1.27 1.53-2.67 4.71-2.67a16 16 0 0 1 6.52 1.48L72 1.37S68.82 0 64.33 0ZM.17.5 0 1.47s2.95.54 5.6 1.62c3.43 1.23 3.67 1.95 4.25 4.19l6.28 24.2h8.41L37.51.5h-8.4l-8.33 21.08-3.4-17.87C17.07 1.66 15.5.5 13.56.5H.17Zm40.72 0-6.59 31h8l6.57-31H40.9Zm44.66 0c-1.93 0-2.95 1.03-3.7 2.83L70.1 31.5h8.4l1.63-4.7h10.23l.98 4.7h7.41L92.3.5h-6.75Zm1.1 8.37 2.48 11.63h-6.67l4.18-11.63Z"/>
</svg>